<?xml version="1.0" encoding="utf-8"?>
<!-- Generator: Adobe Illustrator 28.0.0, SVG Export Plug-In . SVG Version: 6.00 Build 0)  -->
<svg version="1.1" id="Calque_1" xmlns="http://www.w3.org/2000/svg" xmlns:xlink="http://www.w3.org/1999/xlink" x="0px" y="0px"
	 viewBox="0 0 336 201" style="enable-background:new 0 0 336 201;" xml:space="preserve">
<style type="text/css">
	.st0{clip-path:url(#SVGID_00000013193889649345125130000007146788220599311273_);}
	.st1{fill:#F4D04E;}
	.st2{fill:#FFFFFF;}
	.st3{fill:#111111;}
	.st4{fill:none;stroke:#FFFFFF;stroke-width:3;}
	.st5{fill:none;stroke:#111111;stroke-width:3;}
	.st6{fill:none;stroke:#FFFFFF;stroke-width:5;}
	.st7{fill:#111111;filter:url(#Adobe_OpacityMaskFilter);}
	.st8{mask:url(#b_00000048463954119748009110000002781781246757547395_);}
</style>
<g>
	<defs>
		<rect id="SVGID_1_" y="0.5" width="336" height="200"/>
	</defs>
	<clipPath id="SVGID_00000011744457902066177260000016983011322751914383_">
		<use xlink:href="#SVGID_1_"  style="overflow:visible;"/>
	</clipPath>
	<g style="clip-path:url(#SVGID_00000011744457902066177260000016983011322751914383_);">
		<path class="st1" d="M0,0.5h336v200H0V0.5z"/>
		<path class="st2" d="M121.6,44.1L152.7,13c18.5-18.5,48.6-18.5,67.2,0v0c18.5,18.5,18.5,48.6,0,67.2l-31.1,31.1
			c-18.5,18.5-48.6,18.5-67.2,0l0,0C103,92.8,103,62.7,121.6,44.1z"/>
		<path class="st3" d="M87.6,44.1L118.8,13c18.5-18.5,48.6-18.5,67.2,0l0,0c18.5,18.5,18.5,48.6,0,67.2l-31.1,31.1
			c-18.5,18.5-48.6,18.5-67.2,0l0,0C69.1,92.8,69.1,62.7,87.6,44.1z"/>
		<path class="st3" d="M234.9,209L451.4-7.5l67.2,67.2L302,276.2L234.9,209z"/>
		<path class="st2" d="M53.7,44.1L84.8,13c18.5-18.5,48.6-18.5,67.2,0v0c18.5,18.5,18.5,48.6,0,67.2l-31.1,31.1
			c-18.5,18.5-48.6,18.5-67.2,0l0,0C35.2,92.8,35.2,62.7,53.7,44.1z"/>
		<path class="st3" d="M-52.1,149.9L-52.1,149.9c-39.9,39.9-39.9,104.5,0,144.4l46.9,46.9c39.9,39.9,104.5,39.9,144.4,0l0,0
			c39.9-39.9,39.9-104.5,0-144.4l-46.9-46.9C52.5,110-12.2,110-52.1,149.9z"/>
		<path class="st4" d="M6.7-357.5l135.6,135.7c12.5,12.5,12.5,32.7,0,45.2l-187.8,188C-58,24-58,44.2-45.5,56.7l152.6,152.8"/>
		<path class="st5" d="M70,71.7v23.3h23.3 M136.1,52.3V28.9h-23.3 M102.8,38.8v46.7 M210.4-37.5l60.9,60.9
			c12.5,12.5,12.5,32.8,0,45.3l-77.7,77.7c-12.5,12.5-12.5,32.8,0,45.3l69.9,69.9"/>
		<path class="st5" d="M253.3,149.6l-12.1,12.1l14.3,14.3v12.7h12.7l13.7,13.7l12.1-12.1 M278.7,124.2l-12.1,12.1l14.3,14.3v12.7
			h12.7l13.7,13.7l12.1-12.1 M304,98.9L291.9,111l14.3,14.3V138h12.7l13.7,13.7l12.1-12.1 M329.4,73.5l-12.1,12.1l14.3,14.3v12.7
			h12.7l13.7,13.7l12.1-12.1"/>
		<path class="st6" d="M354.7,48.2l-12.1,12.1l14.3,14.3v12.7h12.7l13.7,13.7l12.1-12.1"/>
		<defs>
			<filter id="Adobe_OpacityMaskFilter" filterUnits="userSpaceOnUse" x="239.1" y="46.4" width="158.1" height="158.1">
				<feColorMatrix  type="matrix" values="1 0 0 0 0  0 1 0 0 0  0 0 1 0 0  0 0 0 1 0"/>
			</filter>
		</defs>
		
			<mask maskUnits="userSpaceOnUse" x="239.1" y="46.4" width="158.1" height="158.1" id="b_00000048463954119748009110000002781781246757547395_">
			<path class="st7" d="M234.9,209L451.4-7.5l67.2,67.2L302,276.2L234.9,209z"/>
		</mask>
		<g class="st8">
			<path class="st4" d="M253.3,149.6l-12.1,12.1l14.3,14.3v12.7h12.7l13.7,13.7l12.1-12.1 M278.7,124.2l-12.1,12.1l14.3,14.3v12.7
				h12.7l13.7,13.7l12.1-12.1 M304,98.9L291.9,111l14.3,14.3V138h12.7l13.7,13.7l12.1-12.1 M329.4,73.5l-12.1,12.1l14.3,14.3v12.7
				h12.7l13.7,13.7l12.1-12.1"/>
			<path class="st6" d="M354.7,48.2l-12.1,12.1l14.3,14.3v12.7h12.7l13.7,13.7l12.1-12.1"/>
		</g>
	</g>
</g>
</svg>
